<?xml version="1.0" encoding="utf-8"?>
<!-- Generator: Adobe Illustrator 16.0.0, SVG Export Plug-In . SVG Version: 6.00 Build 0)  -->
<!DOCTYPE svg PUBLIC "-//W3C//DTD SVG 1.1//EN" "http://www.w3.org/Graphics/SVG/1.1/DTD/svg11.dtd">
<svg version="1.1" id="Calque_1" xmlns="http://www.w3.org/2000/svg" xmlns:xlink="http://www.w3.org/1999/xlink" x="0px" y="0px"
	 width="16.04px" height="15.16px" viewBox="0 0 16.04 15.16" enable-background="new 0 0 16.04 15.16" xml:space="preserve">
<path fill="#0CE818" d="M2.772,14.014c0.071-0.396,0.168-0.992,0.285-1.584C3.39,10.726,2.953,9.275,1.67,8.083
	C1.212,7.66,0.766,7.222,0.344,6.763c-0.577-0.627-0.417-1.289,0.401-1.521c0.614-0.174,1.259-0.267,1.896-0.33
	c1.702-0.168,2.902-1.038,3.665-2.541c0.309-0.608,0.538-1.257,0.926-1.823c0.517-0.752,1.196-0.731,1.646,0.07
	c0.334,0.594,0.609,1.221,0.922,1.828c0.754,1.46,1.928,2.302,3.584,2.462c0.619,0.06,1.238,0.169,1.845,0.307
	c0.838,0.189,1.067,0.878,0.497,1.531c-0.46,0.527-0.979,1.006-1.48,1.496c-1.175,1.139-1.572,2.51-1.26,4.104
	c0.116,0.592,0.223,1.188,0.305,1.786c0.141,1-0.444,1.457-1.377,1.052c-0.623-0.271-1.216-0.615-1.817-0.935
	c-1.362-0.724-2.723-0.709-4.088-0.014c-0.608,0.311-1.209,0.635-1.827,0.924C3.265,15.585,2.739,15.225,2.772,14.014z"/>
</svg>
