<svg version="1.1" id="Calque_1" xmlns="http://www.w3.org/2000/svg" xmlns:xlink="http://www.w3.org/1999/xlink" x="0px" y="0px"
	 width="16.04px" height="15.159px" viewBox="0 0 16.04 15.159" enable-background="new 0 0 16.04 15.159" xml:space="preserve">
<path fill="#0CE818" fill-rule="evenodd" clip-rule="evenodd" d="M2.772,14.014c0.071-0.396,0.168-0.992,0.285-1.584
	c0.333-1.704-0.104-3.155-1.387-4.346C1.212,7.66,0.766,7.222,0.344,6.763c-0.577-0.627-0.417-1.289,0.401-1.521
	c0.614-0.174,1.259-0.267,1.896-0.33c1.702-0.168,2.902-1.038,3.665-2.541c0.309-0.608,0.538-1.257,0.926-1.823
	c0.517-0.752,1.196-0.731,1.646,0.07C9.212,1.212,9.487,1.839,9.8,2.446c0.753,1.46,1.927,2.302,3.584,2.462
	c0.619,0.06,1.237,0.169,1.844,0.307c0.838,0.189,1.067,0.878,0.497,1.531c-0.46,0.527-0.978,1.006-1.481,1.495
	c-1.174,1.14-1.571,2.51-1.259,4.105c0.116,0.592,0.222,1.188,0.305,1.786c0.14,1-0.445,1.457-1.377,1.052
	c-0.624-0.271-1.216-0.615-1.818-0.935c-1.362-0.723-2.723-0.709-4.088-0.013c-0.608,0.31-1.209,0.635-1.827,0.923
	C3.265,15.585,2.739,15.225,2.772,14.014z"/>
</svg>
